# AST/ASF file generated using VICON BodyLanguage
# -----------------------------------------------
:version 1.10
:name VICON
:units
  mass 1.0
  length 0.45
  angle deg
:documentation
   .ast/.asf automatically generated from VICON data using
   VICON BodyBuilder and BodyLanguage model FoxedUp or BRILLIANT.MOD
:root
   order TX TY TZ RX RY RZ
   axis XYZ
   position 0 0 0  
   orientation 0 0 0 
:bonedata
  begin
     id 1 
     name lhipjoint
     direction 0.756833 -0.6125 0.228138 
     length 2.53827 
     axis 0 0 0  XYZ
  end
  begin
     id 2 
     name lfemur
     direction 0.34202 -0.939693 0  
     length 6.51821  
     axis 0 0 20  XYZ
    dof rx ry rz
    limits (-160.0 20.0)
           (-70.0 70.0)
           (-60.0 70.0)
  end
  begin
     id 3 
     name ltibia
     direction 0.34202 -0.939693 0   
     length 6.99902   
     axis 0 0 20   XYZ
    dof rx
    limits (-10.0 170.0)
  end
  begin
     id 4 
     name lfoot
     direction 0.0951515 -0.261427 0.960522   
     length 1.92102   
     axis -90 7.62852e-016 20   XYZ
    dof rx rz
    limits (-45.0 90.0)
           (-70.0 20.0)
  end
  begin
     id 5 
     name ltoes
     direction 1.53539e-011 -4.21781e-011 1   
     length 0.964376   
     axis -90 7.62852e-016 20   XYZ
    dof rx
    limits (-90.0 20.0)
  end
  begin
     id 6 
     name rhipjoint
     direction -0.752153 -0.617542 0.230017   
     length 2.51754  
     axis 0 0 0  XYZ 
  end
  begin
     id 7 
     name rfemur
     direction -0.34202 -0.939693 0   
     length 6.82377   
     axis 0 0 -20   XYZ
    dof rx ry rz
    limits (-160.0 20.0)
           (-70.0 70.0)
           (-70.0 60.0)
  end
  begin
     id 8 
     name rtibia
     direction -0.34202 -0.939693 0   
     length 6.98689   
     axis 0 0 -20   XYZ
    dof rx
    limits (-10.0 170.0)
 end
 begin
     id 9 
     name rfoot
     direction -0.0900426 -0.24739 0.964723   
     length 2.03215  
     axis -90 -7.62852e-016 -20   XYZ
    dof rx rz
    limits (-45.0 90.0)
           (-20.0 70.0)
  end
  begin
     id 10 
     name rtoes
     direction -1.53466e-011 -4.22206e-011 1   
     length 1.0197   
     axis -90 -7.62852e-016 -20   XYZ
    dof rx
    limits (-90.0 20.0)
  end
  begin
     id 11 
     name lowerback
     direction 0.0184183 0.995705 -0.0907278   
     length 2.019   
     axis 0 0 0   XYZ
    dof rx ry rz
    limits (-20.0 45.0)
           (-30.0 30.0)
           (-30.0 30.0)
  end
  begin
     id 12 
     name upperback
     direction 0.00281055 0.998777 0.0493607   
     length 1.99623   
     axis 0 0 0   XYZ
    dof rx ry rz
    limits (-20.0 45.0)
           (-30.0 30.0)
           (-30.0 30.0)
  end
  begin
     id 13 
     name thorax
     direction -0.00665507 0.995706 0.092331   
     length 2.02811   
     axis 0 0 0   XYZ
    dof rx ry rz
    limits (-20.0 45.0)
           (-30.0 30.0)
           (-30.0 30.0)
  end
  begin
     id 14 
     name lowerneck
     direction -0.0960965 0.994358 0.0449225   
     length 1.71265   
     axis 0 0 0   XYZ
    dof rx ry rz
    limits (-20.0 45.0)
           (-30.0 30.0)
           (-30.0 30.0)
  end
  begin
     id 15 
     name upperneck
     direction 0.13642 0.985357 -0.102278   
     length 1.73016   
     axis 0 0 0   XYZ
    dof rx ry rz
    limits (-20.0 45.0)
           (-30.0 30.0)
           (-30.0 30.0)
  end
  begin
     id 16
     name head
     direction 0.0556079 0.997632 -0.040479  
     length 1.74275  
     axis 0 0 0   XYZ
    dof rx ry rz
    limits (-20.0 45.0)
           (-30.0 30.0)
           (-30.0 30.0)
  end
  begin
     id 17 
     name lclavicle
     direction 0.90877 0.417247 -0.00652364  
     length 3.25514  
     axis 0 0 0   XYZ
    dof ry rz
    limits (-20.0 10.0)
           (0.0 20.0)
  end
  begin
     id 18 
     name lhumerus
     direction 1 -4.48949e-011 8.31417e-028   
     length 4.84834   
     axis 180 -30 -90   XYZ
    dof rx ry rz
    limits (-60.0 90.0)
           (-90.0 90.0)
           (-90.0 90.0)
  end
  begin
     id 19
     name lradius
     direction 1 -4.48984e-011 3.45616e-027   
     length 2.99713   
     axis 180 -30 -90   XYZ
    dof rx
    limits (-10.0 170.0)
  end
  begin
     id 20
     name lwrist
     direction 1 -4.4891e-011 4.0479e-027   
     length 1.49857   
     axis -1.61768e-015 90 90   XYZ
    dof ry
    limits (-180.0 0.0)
 end
  begin
     id 21 
     name lhand
     direction 1 -4.49025e-011 8.0958e-027   
     length 0.693987   
     axis -5.16581e-015 90 90   XYZ
    dof rx rz
    limits (-90.0 90.0)
           (-45.0 45.0)
  end
  begin
     id 22 
     name lfingers
     direction 1 -4.4888e-011 1.61916e-026   
     length 0.55951   
     axis -1.03316e-014 90 90   XYZ
    dof rx
    limits (0.0 90.0)
  end
  begin
     id 23
     name lthumb
     direction 0.707107 -6.3493e-011 0.707107   
     length 0.803348   
     axis -90 45 2.85299e-015   XYZ
    dof rx rz
    limits (-45.0 45.0)
           (-45.0 45.0)
  end
  begin
     id 24 
     name rclavicle
     direction -0.906655 0.41906 0.0486307   
     length 3.3311  
     axis 0 0 0   XYZ 
    dof ry rz
    limits (-10.0 20.0)
           (-20.0 0.0)
  end
  begin
     id 25 
     name rhumerus
     direction -1 -4.48959e-011 6.37764e-018  
     length 4.93457   
     axis 180 30 90   XYZ
    dof rx ry rz
    limits (-90.0 60.0)
           (-90.0 90.0)
           (-90.0 90.0)
  end
  begin
     id 26 
     name rradius
     direction -1 -4.48957e-011 2.20847e-027   
     length 3.3443   
     axis 180 30 90   XYZ
    dof rx
    limits (-10.0 170.0)
  end
  begin
     id 27 
     name rwrist
     direction -1 -4.49008e-011 4.0479e-027   
     length 1.67215   
     axis -1.61768e-015 -90 -90   XYZ
    dof ry
    limits (-180.0 0.0)
  end
  begin
     id 28
     name rhand
     direction -1 -4.49013e-011 8.0958e-027   
     length 0.677363   
     axis -5.16581e-015 -90 -90   XYZ
    dof rx rz
    limits (-90.0 90.0)
           (-45.0 45.0)
  end
  begin
     id 29
     name rfingers
     direction -1 -4.48832e-011 1.61916e-026   
     length 0.546107   
     axis -1.03316e-014 -90 -90   XYZ
    dof rx
    limits (0.0 90.0)
  end
  begin
     id 30
     name rthumb
     direction -0.707107 -6.34895e-011 0.707107   
     length 0.784104   
     axis -90 -45 -2.85299e-015   XYZ
    dof rx rz
    limits (-45.0 45.0)
           (-45.0 45.0)
  end
:hierarchy
  begin
    root lhipjoint rhipjoint lowerback
    lhipjoint lfemur
    lfemur ltibia
    ltibia lfoot
    lfoot ltoes
    rhipjoint rfemur
    rfemur rtibia
    rtibia rfoot
    rfoot rtoes
    lowerback upperback
    upperback thorax
    thorax lowerneck lclavicle rclavicle
    lowerneck upperneck
    upperneck head
    lclavicle lhumerus
    lhumerus lradius
    lradius lwrist
    lwrist lhand lthumb
    lhand lfingers
    rclavicle rhumerus
    rhumerus rradius
    rradius rwrist
    rwrist rhand rthumb
    rhand rfingers
  end

#!OML:ASF H:\Terrain\Patient Classification 1\junglegym\FridayTest\junglegym.ASF
:FULLY-SPECIFIED
:DEGREES
276
root 9.24263 16.1868 11.2716 4.90332 2.25774 0.63846
lowerback 0.936796 -3.08254 -2.55153
upperback -2.99021 -4.14303 1.59087
thorax -3.30511 -1.9759 3.21323
lowerneck -4.97565 -1.22446 -16.0984
upperneck 10.6833 -1.74481 14.2591
head 4.22306 -0.777588 7.0865
rclavicle 2.74789e-014 8.34896e-015
rhumerus -50.1933 -12.1363 -71.4896
rradius 17.408
rwrist 14.6995
rhand -12.3164 24.1204
rfingers 7.12502
rthumb 13.7521 -5.40512
lclavicle 2.74789e-014 8.34896e-015
lhumerus -27.4432 -1.93746 80.7287
lradius 35.1422
lwrist -21.7909
lhand -10.4966 23.0317
lfingers 7.12502
lthumb 15.5054 52.4299
rfemur -36.9632 5.00315 20.963
rtibia 24.1651
rfoot -6.14886 -12.5678
rtoes 35.583
lfemur 15.1245 1.46768 -24.3285
ltibia 15.8176
lfoot -8.82357 2.85843
ltoes -26.6891
277
root 9.21321 16.1705 11.4937 4.87068 2.28509 0.0178084
lowerback 0.790566 -3.08602 -2.05086
upperback -3.08477 -4.12438 1.83392
thorax -3.33821 -1.97534 3.17897
lowerneck -5.0508 -1.11636 -15.8844
upperneck 10.9078 -1.58271 13.9027
head 4.2749 -0.706123 6.94319
rclavicle -4.21423e-014 -9.93923e-015
rhumerus -50.3639 -11.5761 -71.7183
rradius 17.3553
rwrist 14.0377
rhand -12.4278 24.4478
rfingers 7.12502
rthumb 13.6448 -5.08495
lclavicle -4.21423e-014 -9.93923e-015
lhumerus -27.8146 -1.59278 80.7899
lradius 34.6174
lwrist -21.913
lhand -10.5995 22.8569
lfingers 7.12502
lthumb 15.4063 52.2628
rfemur -36.7625 5.10333 21.7354
rtibia 24.9143
rfoot -5.0797 -12.6538
rtoes 38.296
lfemur 14.2583 2.37983 -23.0661
ltibia 18.4512
lfoot -7.56339 2.04866
ltoes -30.5744
278
root 9.18791 16.1753 11.7271 4.73771 2.37228 -0.390828
lowerback 0.67099 -3.07896 -1.68783
upperback -3.14959 -4.10035 1.94503
thorax -3.35608 -1.97088 3.08577
lowerneck -5.42727 -1.03819 -15.2231
upperneck 11.4127 -1.45747 13.3357
head 4.46582 -0.638339 6.65866
rclavicle 2.74944e-014 -3.97569e-015
rhumerus -50.7461 -11.7678 -71.3849
rradius 17.3629
rwrist 14.4002
rhand -12.5936 24.6878
rfingers 7.12502
rthumb 13.4849 -4.85561
lclavicle 2.74944e-014 -3.97569e-015
lhumerus -28.3765 -1.63527 80.8484
lradius 34.304
lwrist -21.8962
lhand -10.6719 22.506
lfingers 7.12502
lthumb 15.3366 51.9173
rfemur -36.2127 4.5735 22.5421
rtibia 25.5231
rfoot -3.68306 -12.6528
rtoes 37.8528
lfemur 13.2171 3.13808 -22.0135
ltibia 21.6871
lfoot -6.5383 0.958538
ltoes -30.1672
279
root 9.16391 16.1921 11.9628 4.54325 2.50559 -1.0192
lowerback 0.520228 -3.06289 -1.0656
upperback -3.15979 -4.05836 2.0671
thorax -3.31744 -1.9659 2.85493
lowerneck -5.55946 -0.988543 -14.871
upperneck 11.6826 -1.40448 13.1529
head 4.5588 -0.605033 6.54656
rclavicle -2.96997e-014 -9.14409e-015
rhumerus -51.0927 -12.6409 -70.5665
rradius 17.229
rwrist 15.4057
rhand -12.9268 24.8166
rfingers 7.12502
rthumb 13.1637 -4.74788
lclavicle -2.96997e-014 -9.14409e-015
lhumerus -28.8548 -1.68256 80.872
lradius 33.7545
lwrist -22.2335
lhand -10.9626 22.4733
lfingers 7.12502
lthumb 15.0565 51.9058
rfemur -35.5024 3.96131 23.6561
rtibia 26.0987
rfoot -2.348 -12.5664
rtoes 35.964
lfemur 12.0517 3.86068 -20.6218
ltibia 25.1772
lfoot -5.27981 -0.373174
ltoes -28.0883
280
root 9.14484 16.204 12.1935 4.3258 2.55844 -1.57899
lowerback 0.411864 -3.00947 -0.455049
upperback -3.13314 -3.96996 2.15809
thorax -3.26787 -1.93789 2.59873
lowerneck -5.34985 -0.962872 -14.7895
upperneck 11.5743 -1.39594 13.1295
head 4.48813 -0.604223 6.5219
rclavicle -1.69215e-014 1.94809e-014
rhumerus -51.1384 -13.1305 -70.134
rradius 16.9846
rwrist 15.6188
rhand -12.9619 25.0469
rfingers 7.12502
rthumb 13.1299 -4.51972
lclavicle -1.69215e-014 1.94809e-014
lhumerus -29.2066 -1.31144 80.7816
lradius 32.9699
lwrist -23.0699
lhand -10.9074 22.0732
lfingers 7.12502
lthumb 15.1097 51.5017
rfemur -34.8211 3.2065 24.7634
rtibia 26.7673
rfoot -1.36817 -11.8191
rtoes 36.5327
lfemur 10.8474 4.68163 -19.3154
ltibia 28.7013
lfoot -3.64613 -1.46997
ltoes -28.2702
281
root 9.12809 16.2198 12.4174 4.08937 2.33175 -2.20883
lowerback 0.424382 -2.85068 0.211431
upperback -3.08442 -3.73913 2.28572
thorax -3.26909 -1.83892 2.35174
lowerneck -5.30913 -0.985465 -14.5841
upperneck 11.5288 -1.42693 12.9381
head 4.47058 -0.62164 6.42021
rclavicle 2.90723e-014 -5.1684e-015
rhumerus -51.1084 -13.4546 -69.8352
rradius 16.9146
rwrist 15.7083
rhand -12.1171 24.7275
rfingers 7.12502
rthumb 13.9441 -4.78489
lclavicle 2.90723e-014 -5.1684e-015
lhumerus -29.5683 -0.844344 80.7294
lradius 32.511
lwrist -23.594
lhand -10.1838 21.5231
lfingers 7.12502
lthumb 15.8066 50.8978
rfemur -34.2813 2.5924 25.9563
rtibia 27.5891
rfoot -0.302995 -10.571
rtoes 36.0516
lfemur 9.6747 5.45476 -18.0572
ltibia 32.2207
lfoot -1.80257 -1.9866
ltoes -25.3497
282
root 9.10564 16.229 12.6293 3.90663 1.89446 -2.9091
lowerback 0.557956 -2.66156 0.823453
upperback -3.07398 -3.46347 2.5012
thorax -3.36739 -1.71408 2.23176
lowerneck -5.70493 -1.03971 -14.4449
upperneck 11.8504 -1.45617 12.705
head 4.63898 -0.632944 6.32598
rclavicle -1.39895e-014 -7.55382e-015
rhumerus -51.0226 -13.5756 -69.6811
rradius 16.9093
rwrist 15.7411
rhand -12.0309 24.3985
rfingers 7.12502
rthumb 14.0272 -5.10821
lclavicle -1.39895e-014 -7.55382e-015
lhumerus -29.9586 -0.448682 80.7896
lradius 32.0618
lwrist -23.7806
lhand -9.7068 21.4618
lfingers 7.12502
lthumb 16.266 50.7995
rfemur -33.8901 2.28707 27.2139
rtibia 28.4674
rfoot 0.482996 -9.46721
rtoes 32.626
lfemur 8.47535 6.20088 -16.7442
ltibia 35.7438
lfoot 0.164813 -2.17325
ltoes -20.7214
283
root 9.08801 16.2315 12.8384 3.87257 1.69292 -2.97038
lowerback 0.585799 -2.62417 0.809756
upperback -3.15058 -3.40905 2.58918
thorax -3.45817 -1.68462 2.33267
lowerneck -6.18992 -1.02803 -14.3949
upperneck 12.3045 -1.38259 12.4787
head 4.84932 -0.596713 6.25865
rclavicle -3.34952e-014 2.42517e-014
rhumerus -50.7786 -13.264 -69.8132
rradius 16.8213
rwrist 15.5283
rhand -12.22 24.2082
rfingers 7.12502
rthumb 13.845 -5.31099
lclavicle -3.34952e-014 2.42517e-014
lhumerus -30.4571 0.163757 80.7923
lradius 31.433
lwrist -24.1537
lhand -9.79736 21.5446
lfingers 7.12502
lthumb 16.1788 50.8894
rfemur -33.5089 1.5536 27.8102
rtibia 29.1714
rfoot 0.73931 -8.47805
rtoes 27.7824
lfemur 7.01588 6.65496 -16.2783
ltibia 39.29
lfoot 2.23702 -2.26424
ltoes -23.4185
284
root 9.0747 16.2459 13.0445 3.81483 1.54077 -3.04272
lowerback 0.663846 -2.59352 0.853169
upperback -3.24105 -3.36155 2.63977
thorax -3.59723 -1.66036 2.36676
lowerneck -6.1888 -0.901729 -14.3512
upperneck 12.3524 -1.21246 12.4375
head 4.83899 -0.514027 6.24837
rclavicle 4.68386e-015 6.36111e-015
rhumerus -50.5785 -13.1372 -69.7925
rradius 16.8079
rwrist 15.4866
rhand -11.6105 23.6254
rfingers 7.12502
rthumb 14.4323 -5.85276
lclavicle 4.68386e-015 6.36111e-015
lhumerus -31.0178 0.88358 80.6866
lradius 30.874
lwrist -24.5718
lhand -9.70777 21.4906
lfingers 7.12502
lthumb 16.265 50.8284
rfemur -32.947 0.909963 28.2895
rtibia 29.6625
rfoot 0.576127 -7.65031
rtoes 24.0049
lfemur 5.37559 6.90356 -15.9506
ltibia 42.8543
lfoot 4.82261 -2.009
ltoes -25.7632
285
root 9.06189 16.2703 13.2439 3.68866 1.24991 -3.88107
lowerback 0.830831 -2.43798 1.75851
upperback -3.23263 -3.1185 2.80018
thorax -3.73178 -1.56246 2.02762
lowerneck -6.24079 -0.926508 -14.0001
upperneck 12.2655 -1.235 12.1361
head 4.82294 -0.524104 6.08531
rclavicle 1.21134e-014 9.54166e-015
rhumerus -50.3437 -13.655 -69.4715
rradius 16.6848
rwrist 15.9022
rhand -11.3421 23.4961
rfingers 7.12502
rthumb 14.6909 -5.96337
lclavicle 1.21134e-014 9.54166e-015
lhumerus -31.382 1.52941 80.5076
lradius 30.276
lwrist -25.1049
lhand -9.53079 21.1241
lfingers 7.12502
lthumb 16.4354 50.4479
rfemur -32.1324 0.804207 29.4464
rtibia 29.9472
rfoot 0.107138 -7.18341
rtoes 22.9479
lfemur 3.66049 7.35237 -14.7296
ltibia 46.4136
lfoot 8.19476 -0.0763114
ltoes -12.2283
286
root 9.05074 16.3006 13.4405 3.5484 1.06101 -4.56742
lowerback 1.05346 -2.33698 2.52323
upperback -3.17128 -2.94836 2.9584
thorax -3.82995 -1.49749 1.76734
lowerneck -6.81409 -1.05414 -13.5443
upperneck 12.5135 -1.3324 11.579
head 5.00811 -0.569839 5.82579
rclavicle -3.20665e-014 2.70347e-014
rhumerus -49.8581 -14.1284 -69.2393
rradius 16.4657
rwrist 16.6207
rhand -11.5583 23.7557
rfingers 7.12502
rthumb 14.4826 -5.71888
lclavicle -3.20665e-014 2.70347e-014
lhumerus -31.6719 2.12578 80.428
lradius 29.6806
lwrist -25.4015
lhand -9.47545 21.0867
lfingers 7.12502
lthumb 16.4887 50.4061
rfemur -31.0725 0.817392 30.344
rtibia 29.8988
rfoot -0.459691 -7.11142
rtoes 23.8457
lfemur 1.88043 7.75522 -13.7071
ltibia 49.8642
lfoot 11.2508 3.29926
ltoes 9.92487
